<svg id="Layer_1" data-name="Layer 1" xmlns="http://www.w3.org/2000/svg" xmlns:xlink="http://www.w3.org/1999/xlink" viewBox="0 0 612.11 230.05"><defs><style>.cls-1{fill:#f58220;}.cls-2{fill:#50b848;}.cls-3{fill:none;}.cls-4{fill:url(#linear-gradient);}</style><linearGradient id="linear-gradient" x1="-436.56" y1="356.6" x2="-388.57" y2="356.6" gradientUnits="userSpaceOnUse"><stop offset="0" stop-color="#403092"/><stop offset="0.51" stop-color="#0092d7"/><stop offset="1" stop-color="#0056a7"/></linearGradient></defs><title>Fulkuri</title><path class="cls-1" d="M-712.79,381.33h0l-.06-.12Z" transform="translate(741.99 -244.02)"/><path class="cls-1" d="M-682.42,322.1a25,25,0,0,1,3.5-6.17,23.62,23.62,0,0,1,5-4.81c.79-.55,1.58-1,2.37-1.48-2.29-7.52-6.48-13.69-13.59-17.79a1.64,1.64,0,0,0-1.88,0,28,28,0,0,0-6.69,5.26c-7.18,7.94-9.28,17.47-8.66,27.83a4.33,4.33,0,0,0,.64,1.94c2.75,4.8,5.49,9.59,8.18,14.42.44.78.77.9,1.58.56a14,14,0,0,1,11.34.06,27.25,27.25,0,0,1-3.25-12.39A19.94,19.94,0,0,1-682.42,322.1Z" transform="translate(741.99 -244.02)"/><path class="cls-1" d="M-676.85,389.75a35.91,35.91,0,0,1-5.54-16.12,13.23,13.23,0,0,1,.65-4,14,14,0,0,1-10.18-.31c-.78-.33-1.14-.29-1.59.52-2.72,4.91-5.5,9.77-8.29,14.64a3.69,3.69,0,0,0-.52,1.6,40.88,40.88,0,0,0,1.59,15.55c2.35,7.6,6.73,13.65,13.72,17.67a1.64,1.64,0,0,0,1.88,0,28.26,28.26,0,0,0,7.82-6.53,33.08,33.08,0,0,0,6.77-15.1A49.87,49.87,0,0,1-676.85,389.75Z" transform="translate(741.99 -244.02)"/><path class="cls-1" d="M-720.33,354.52a3.18,3.18,0,0,0,1.43.22h8.18c2.81,0,5.62-.05,8.43,0,.93,0,1.16-.33,1.26-1.15a14.34,14.34,0,0,1,5.8-9.93c.66-.49.76-.8.34-1.52-2.82-4.89-5.6-9.81-8.38-14.73a3.79,3.79,0,0,0-1.24-1.31A41.44,41.44,0,0,0-718,320c-7.9-1.94-15.49-1.31-22.65,2.78a1.92,1.92,0,0,0-1.14,1.92A28.4,28.4,0,0,0-739,337C-735,345.14-728.4,350.64-720.33,354.52Z" transform="translate(741.99 -244.02)"/><path class="cls-1" d="M-703.41,383.9c2.87-5.06,5.73-10.12,8.62-15.16.31-.53.27-.79-.24-1.16a14.42,14.42,0,0,1-6-10.2c-.1-.82-.43-1-1.24-1-2.77,0-5.54,0-8.31,0h-8.3a3.85,3.85,0,0,0-1.76.37A40.86,40.86,0,0,0-734,366.65a29.46,29.46,0,0,0-7.78,19.87,1.67,1.67,0,0,0,.9,1.67,28,28,0,0,0,13.92,3.95c8.35.13,15.78-2.66,22.61-7.28A2.89,2.89,0,0,0-703.41,383.9Z" transform="translate(741.99 -244.02)"/><path class="cls-1" d="M-677,363.32a10.3,10.3,0,0,0,3.48-7.86,8.5,8.5,0,0,0-2.49-6.39,43.87,43.87,0,0,1-3.25-4.61,13,13,0,0,0-7.09-2.08,13.1,13.1,0,0,0-13.18,13.17,13.11,13.11,0,0,0,13.17,13.18,13.21,13.21,0,0,0,5.56-1.25A12.68,12.68,0,0,1-677,363.32Zm-9.38,1.57a9.27,9.27,0,0,1-9.31-9.39,9.29,9.29,0,0,1,9.29-9.29,9.29,9.29,0,0,1,9.38,9.33A9.28,9.28,0,0,1-686.36,364.89Z" transform="translate(741.99 -244.02)"/><path class="cls-1" d="M-734,363.14a1,1,0,0,0,1.38-.23c1.08-1,2.2-1.93,3.35-2.85,1.77-1.41,3.72-2.56,5.64-3.82-1.55-.11-3.07-.11-4.6-.11h-4.64c-.57,0-1-.27-1-.85s.4-.78.89-.83.73,0,1.1,0h7.19a59.88,59.88,0,0,1-8.55-6.79c-.41-.41-.72-.19-1.07,0a18.09,18.09,0,0,0-7.41,6.89,1.34,1.34,0,0,0,0,1.56A18.57,18.57,0,0,0-734,363.14Z" transform="translate(741.99 -244.02)"/><path class="cls-1" d="M-715,319.09a47.88,47.88,0,0,1,9.38,4.31c-.39-.71-.62-1.16-.88-1.6-1.19-2.08-2.39-4.15-3.59-6.23-.3-.53-.34-1,.27-1.34s.91.07,1.18.51c.17.27.33.56.49.84l3.75,6.49A56.85,56.85,0,0,1-702.88,311c.17-.65-.29-.78-.63-1a18.59,18.59,0,0,0-9.53-3,1.4,1.4,0,0,0-1.46.83,18.31,18.31,0,0,0-2.28,8.74C-716.81,318.51-716.8,318.52-715,319.09Z" transform="translate(741.99 -244.02)"/><path class="cls-1" d="M-704.17,388.74c0-.23.19-.56-.24-.74l-4.5,7.83c-.25.42-.47.89-1.06.87s-1-.73-.48-1.57c1.26-2.22,2.54-4.42,4-6.93a46.12,46.12,0,0,1-10.23,4.3c-.53.14-.48.59-.5,1A17.8,17.8,0,0,0-715,403a1.35,1.35,0,0,0,1.34.79,18.12,18.12,0,0,0,10.09-3.19,1,1,0,0,0,.47-1.31A41.9,41.9,0,0,1-704.17,388.74Z" transform="translate(741.99 -244.02)"/><path class="cls-1" d="M-686.37,347.9a7.59,7.59,0,0,0-7.62,7.69,7.57,7.57,0,0,0,7.69,7.61,7.56,7.56,0,0,0,7.61-7.68A7.58,7.58,0,0,0-686.37,347.9Z" transform="translate(741.99 -244.02)"/><path class="cls-2" d="M-562.9,354.37a25,25,0,0,1-1.59,8.76,25.13,25.13,0,0,1-4.46,7.65,22.9,22.9,0,0,1-6.85,5.41,18.74,18.74,0,0,1-8.76,2.07,19,19,0,0,1-7.33-1.51,22.1,22.1,0,0,1-6.53-4.14,20.39,20.39,0,0,1-4.62-6.29,18.2,18.2,0,0,1-1.75-8v-1a17.74,17.74,0,0,1,1.59-7.25,20.94,20.94,0,0,1,4.38-6.37,22.8,22.8,0,0,1,6.29-4.46,16.9,16.9,0,0,1,7.33-1.67h1.28a8.23,8.23,0,0,1,2.23.32l2.86.48c.32,0,.58-.32.8-1v-.32a17.23,17.23,0,0,0-13.7-6.37,15.1,15.1,0,0,0-5.89,1.28,23.22,23.22,0,0,0-5.66,3.42,17.7,17.7,0,0,0-4.3,5.18,13,13,0,0,0-1.67,6.37v45.7a12.6,12.6,0,0,1-1.27,5.42,13.76,13.76,0,0,1-4.14,4.94,23.63,23.63,0,0,1-7.57,3.66,40.52,40.52,0,0,1-11.7,1.43,41.61,41.61,0,0,1-15-2.86,51.1,51.1,0,0,1-13.54-7.65,43.94,43.94,0,0,1-10.11-11.23,30.24,30.24,0,0,1-4.7-13.61v-.16q0-3,3.34-5.26a16,16,0,0,0,5.58-12.26,14.08,14.08,0,0,0-4.14-10.35q-6.22-7.8-6.22-15.61a14.53,14.53,0,0,1,1-5.34,19,19,0,0,1,2.71-4.77,17.69,17.69,0,0,1,3.82-3.67,20.37,20.37,0,0,1,4.22-2.31,25.12,25.12,0,0,1,3.58-1c2-.48,4.38-1,7.25-1.43s6-.91,9.32-1.28a89,89,0,0,1,9.79-.56,102.3,102.3,0,0,1,33.45,5.42,81.12,81.12,0,0,1,29,17.68q8.28,8.76,8.76,11A23,23,0,0,1-562.9,354.37ZM-658,330.8c-.64,0-1.49.06-2.55.16a10.58,10.58,0,0,0-3.1.8,8.89,8.89,0,0,0-2.71,1.75,4.13,4.13,0,0,0-1.2,3.18,7.75,7.75,0,0,0,1.12,4q1.11,1.9,2.39,4a46.59,46.59,0,0,1,2.39,4.46,12.29,12.29,0,0,1,1.11,5.25q0,9.88-8.44,15.93a3.39,3.39,0,0,0-2.39,3.34,6,6,0,0,0,1.91,4,20.82,20.82,0,0,0,4.94,3.83,33.47,33.47,0,0,0,6.77,2.94,24.1,24.1,0,0,0,7.4,1.2,17.83,17.83,0,0,0,6-.88,14,14,0,0,0,4.06-2.15,7.45,7.45,0,0,0,2.23-2.71,6.69,6.69,0,0,0,.63-2.7V343.7a7.32,7.32,0,0,0-1.91-4.7,19.47,19.47,0,0,0-4.93-4.14,29.73,29.73,0,0,0-6.61-2.94A23.61,23.61,0,0,0-658,330.8Z" transform="translate(741.99 -244.02)"/><path class="cls-2" d="M-598.26,412.62c.11.53.27,1.17.48,1.91s.48,1.7.8,2.87q-.81,10-6.77,15.84t-18.56,8.37a12.31,12.31,0,0,1-1.91.16h-1.91q-12.11,0-18.32-5.9t-6.37-15.45c.11-.74.22-1.38.32-1.91s.22-1,.32-1.43l.16-.32q4.46-15,26.44-18.15a35.39,35.39,0,0,1,10,1.27l1.12.32a54.4,54.4,0,0,1,14.65,7A67.35,67.35,0,0,1-585,418.27a55.13,55.13,0,0,1,9.08,13.7,35.57,35.57,0,0,1,3.42,15,29.6,29.6,0,0,1-1.27,8.44l-1.12,3.66a11.08,11.08,0,0,1-1.91,3.67,21.2,21.2,0,0,1-3.58,3.66,18.34,18.34,0,0,1-5.1,2.87,18.12,18.12,0,0,1-6.45,1.11c-3.72,0-6.42-.87-8.12-2.63a7.72,7.72,0,0,1-2.55-5.33v-1.12a2.6,2.6,0,0,1,.32-1.11l.16-.48q1-3.18,6.53-7.48A39.66,39.66,0,0,0-590.14,442a29.8,29.8,0,0,0,1.28-8.68,28.41,28.41,0,0,0-.56-5.17,33.15,33.15,0,0,0-1.67-5.82,26.72,26.72,0,0,0-2.87-5.41A16.59,16.59,0,0,0-598.26,412.62Zm-13.22,4.78-.47,1.75q-3.82,6.84-9.88,6.85a10.76,10.76,0,0,1-3.66-.64l-1.59-.48-4.31-2.39h-1.27c-2,0-3,.85-3,2.55,0,1.91,1.54,3.88,4.62,5.89l2.87,1.6a11.74,11.74,0,0,0,4,.64,14.8,14.8,0,0,0,3.9-.72,19.41,19.41,0,0,0,4.78-2.15,15,15,0,0,0,4-3.59,7.89,7.89,0,0,0,1.68-5A6.92,6.92,0,0,0-611.48,417.4Z" transform="translate(741.99 -244.02)"/><path class="cls-1" d="M-276.63,416c.08.53.21,1.17.39,1.93l.66,2.9q-1.29,10-7.52,15.5T-302,443.79a12.42,12.42,0,0,1-1.92.07l-1.91-.09q-12.09-.58-18-6.77t-5.63-15.73c.14-.74.28-1.37.41-1.9s.26-1,.39-1.41l.17-.31q5.17-14.75,27.28-16.87a35.22,35.22,0,0,1,10,1.75l1.1.37a54.36,54.36,0,0,1,14.3,7.7,67.29,67.29,0,0,1,12.27,11.67,54.89,54.89,0,0,1,8.42,14.11,35.66,35.66,0,0,1,2.7,15.2,29.36,29.36,0,0,1-1.68,8.37l-1.29,3.61a10.82,10.82,0,0,1-2.08,3.56,21.19,21.19,0,0,1-3.76,3.49,18.12,18.12,0,0,1-5.22,2.62,18.13,18.13,0,0,1-6.5.81q-5.57-.27-8-3a7.77,7.77,0,0,1-2.29-5.45l.06-1.11a2.51,2.51,0,0,1,.37-1.1l.18-.47q1.11-3.13,6.88-7.16a39.94,39.94,0,0,0,5.9-10,29.9,29.9,0,0,0,1.69-8.6,29.06,29.06,0,0,0-.31-5.2,33.37,33.37,0,0,0-1.4-5.89,26.15,26.15,0,0,0-2.6-5.54A16.43,16.43,0,0,0-276.63,416Zm-13.43,4.14-.56,1.72q-4.14,6.66-10.19,6.37a10.66,10.66,0,0,1-3.63-.81l-1.57-.55-4.18-2.59-1.27-.06c-2-.1-3.06.7-3.15,2.39q-.13,2.86,4.34,6.11l2.78,1.73a11.64,11.64,0,0,0,3.95.83,15.11,15.11,0,0,0,3.93-.53,19.35,19.35,0,0,0,4.88-1.92,15.22,15.22,0,0,0,4.15-3.39,7.93,7.93,0,0,0,1.9-4.93A6.85,6.85,0,0,0-290.06,420.13Z" transform="translate(741.99 -244.02)"/><path class="cls-1" d="M-183.72,310.39l3-.47a6.44,6.44,0,0,1,1.59.16h3.67c0-.11.26-.16.79-.16a197.55,197.55,0,0,1,20.94,1.19,63.53,63.53,0,0,1,13.78,2.95c3.51,1.27,6,2.84,7.65,4.7a9.84,9.84,0,0,1,2.39,6.61q0,7.63-5.58,7.64a12.59,12.59,0,0,1-2.23-.32c-2.55-1.59-5-3-7.41-4.22a37.55,37.55,0,0,0-8.12-3,74.34,74.34,0,0,0-10.67-1.67q-6.13-.56-14.89-.55l-2.39,2.22a6.27,6.27,0,0,1-1.35,1.28c-.69.53-1.57,1.22-2.63,2.07q-9.56,10.83-9.55,19.59v1.27a13.47,13.47,0,0,0,.47,3.27,16.18,16.18,0,0,0,1.36,3.5,9.35,9.35,0,0,0,2.15,2.79,4.06,4.06,0,0,0,2.7,1.11h.16q5.27,0,7.65-9.71,3.66-12,8.76-17.12c3.39-3.45,6.85-5.18,10.35-5.18h.8q2.38,0,7.16,2.63a38.84,38.84,0,0,1,9.48,7.64,51.32,51.32,0,0,1,8.28,12.19,35.45,35.45,0,0,1,3.58,16.08v1.6a37.39,37.39,0,0,1-3.26,15.2,43,43,0,0,1-9,13.14,45.29,45.29,0,0,1-13.38,9.24,38.79,38.79,0,0,1-16.4,3.5,38.59,38.59,0,0,1-16.8-3.66,43.79,43.79,0,0,1-13.22-9.47,44.39,44.39,0,0,1-8.6-13.06,36,36,0,0,1-3.11-14.26v-2.07q0-9.22,6.37-18.47l.64-.16c.21,0,.32.21.32.64a18.52,18.52,0,0,0-.16,2.38v1.76a28.53,28.53,0,0,0,2.07,10.51,31.76,31.76,0,0,0,5.89,9.55,29.31,29.31,0,0,0,9.24,6.93,27.37,27.37,0,0,0,12.1,2.63h.48a27.61,27.61,0,0,0,11.07-2.31,30.82,30.82,0,0,0,9.4-6.29,31.23,31.23,0,0,0,6.53-9.4,27.4,27.4,0,0,0,2.47-11.46q0-14.65-11.63-20.07h-1.44a5.39,5.39,0,0,0-3.5,1.51,17.84,17.84,0,0,0-3.34,4.06,23.26,23.26,0,0,0-2.55,5.74,23,23,0,0,0-1,6.68,38.14,38.14,0,0,1-1.83,7.73,37.46,37.46,0,0,1-3.34,7.17,19.38,19.38,0,0,1-4.7,5.33,9.51,9.51,0,0,1-5.89,2.07,8.89,8.89,0,0,1-5-1.67,15.9,15.9,0,0,1-4.46-4.86,28.93,28.93,0,0,1-3.26-7.88,40.74,40.74,0,0,1-1.28-10.75A51.54,51.54,0,0,1-196,324.25a26.46,26.46,0,0,0-4.62,1.12q-2.39.79-4.61,1.59c-1.49.53-2.93,1-4.3,1.35a14.51,14.51,0,0,1-3.67.56c-2.33,0-3.72-1-4.14-3v-.63q0-3,3.66-5.58a42.38,42.38,0,0,1,8.84-4.54,69.81,69.81,0,0,1,11-3.18A82.13,82.13,0,0,1-183.72,310.39Z" transform="translate(741.99 -244.02)"/><path class="cls-1" d="M-184,424.11a13.6,13.6,0,0,1-1.12,5.33,15.37,15.37,0,0,1-3.1,4.7,16.39,16.39,0,0,1-4.62,3.35,12.93,12.93,0,0,1-5.66,1.27,15,15,0,0,1-5.17-1,14.41,14.41,0,0,1-4.7-2.78,14.72,14.72,0,0,1-3.42-4.62,14.5,14.5,0,0,1-1.36-6.45,13.43,13.43,0,0,1,1.12-5.34,15.2,15.2,0,0,1,3-4.62,16,16,0,0,1,4.54-3.26,12.79,12.79,0,0,1,5.66-1.27h.47a13.06,13.06,0,0,1,4.94,1,15.09,15.09,0,0,1,4.62,2.95,15.7,15.7,0,0,1,3.42,4.62A13.35,13.35,0,0,1-184,424.11Z" transform="translate(741.99 -244.02)"/><path class="cls-1" d="M-155,275.52a37.08,37.08,0,0,0-5.73-8.44,65.37,65.37,0,0,0-12.1-10.36,75.75,75.75,0,0,0-13.54-7.08,72.05,72.05,0,0,0-14.33-4.06,83.67,83.67,0,0,0-14.34-1.28h-3a60.63,60.63,0,0,0-18.24,2.63,47.41,47.41,0,0,0-14.41,7.17,35.06,35.06,0,0,0-9.48,10.43,24.11,24.11,0,0,0-3.42,12.26,24.86,24.86,0,0,0,2,9.48,44.21,44.21,0,0,0,5.25,9.31,52.69,52.69,0,0,0,7.57,8.29,49.84,49.84,0,0,0,8.92,6.37,7.8,7.8,0,0,0-4.7,1.43,15.25,15.25,0,0,0-3.43,3.42,15.45,15.45,0,0,0-2.15,4.22,13.13,13.13,0,0,0-.71,3.83v5.41a64,64,0,0,1,11.23,14.07,30.76,30.76,0,0,1,4.16,16.66,29.58,29.58,0,0,1-2.23,9.73,30.6,30.6,0,0,1-5.55,8.91,29,29,0,0,1-7.61,6.07V396.4a11.65,11.65,0,0,0,1.27,5.57,12.63,12.63,0,0,0,3.27,4,15.69,15.69,0,0,0,4.3,2.47,12.83,12.83,0,0,0,4.54.88h.48a12.54,12.54,0,0,0,5.81-1.28,13.37,13.37,0,0,0,4.14-3.26,14.53,14.53,0,0,0,2.55-4.46,14.15,14.15,0,0,0,.87-4.7V323.77a14.59,14.59,0,0,0-3.66-9.39q-10.35-8.44-10.35-17a13.19,13.19,0,0,1,2.23-7.49,19.6,19.6,0,0,1,5.81-5.65,28,28,0,0,1,8.2-3.51,37.67,37.67,0,0,1,9.4-1.19A47.37,47.37,0,0,1-198,281.65a43.49,43.49,0,0,1,13.14,6.77,52.47,52.47,0,0,0,10.19,6.13,23.14,23.14,0,0,0,9.24,2q6.54,0,9.88-3.42a12.35,12.35,0,0,0,3.34-9A34,34,0,0,0-155,275.52Z" transform="translate(741.99 -244.02)"/><path class="cls-1" d="M-277.09,415.7c.08.53.21,1.18.38,1.93s.4,1.72.66,2.9q-1.27,10-7.52,15.51t-18.93,7.46a11.13,11.13,0,0,1-1.91.07l-1.91-.09q-12.09-.59-18-6.76T-330,421c.14-.74.28-1.37.41-1.89s.26-1,.39-1.42l.17-.31q5.17-14.73,27.27-16.87a35.65,35.65,0,0,1,10,1.75l1.09.37a54.5,54.5,0,0,1,14.3,7.7A67,67,0,0,1-264.08,422a54.91,54.91,0,0,1,8.41,14.12,35.32,35.32,0,0,1,2.7,15.19,29.69,29.69,0,0,1-1.67,8.37l-1.29,3.61a11.14,11.14,0,0,1-2.08,3.57,21.56,21.56,0,0,1-3.76,3.49A18.44,18.44,0,0,1-267,473a18.3,18.3,0,0,1-6.49.8q-5.58-.27-8-3a7.73,7.73,0,0,1-2.29-5.45l0-1.12a2.69,2.69,0,0,1,.37-1.1l.19-.47q1.1-3.14,6.88-7.16a39.91,39.91,0,0,0,5.9-10,29.89,29.89,0,0,0,1.68-8.61,28.06,28.06,0,0,0-.3-5.2,33.05,33.05,0,0,0-1.4-5.88,26.49,26.49,0,0,0-2.6-5.55A16.72,16.72,0,0,0-277.09,415.7Zm-13.43,4.14-.56,1.73c-2.77,4.43-6.16,6.56-10.2,6.37a10.79,10.79,0,0,1-3.62-.82l-1.57-.55-4.18-2.59-1.27-.06q-3-.15-3.15,2.4c-.09,1.91,1.35,3.94,4.33,6.11l2.79,1.72A11.59,11.59,0,0,0-304,435a14.74,14.74,0,0,0,3.93-.53,19.13,19.13,0,0,0,4.87-1.92,14.92,14.92,0,0,0,4.15-3.39,7.94,7.94,0,0,0,1.91-4.93A7,7,0,0,0-290.52,419.84Z" transform="translate(741.99 -244.02)"/><path class="cls-1" d="M-184.18,310.11l3-.48a7.09,7.09,0,0,1,1.59.16h3.66c0-.1.27-.16.8-.16a199.93,199.93,0,0,1,20.94,1.2,64.2,64.2,0,0,1,13.78,2.94q5.25,1.92,7.64,4.7a9.79,9.79,0,0,1,2.39,6.61q0,7.65-5.57,7.64a12.59,12.59,0,0,1-2.23-.32c-2.55-1.59-5-3-7.41-4.22a37.22,37.22,0,0,0-8.12-2.94,73,73,0,0,0-10.67-1.67q-6.14-.56-14.89-.56l-2.39,2.23a6.28,6.28,0,0,1-1.35,1.27c-.7.53-1.57,1.22-2.63,2.07q-9.55,10.83-9.56,19.59v1.28a13,13,0,0,0,.48,3.26,16.68,16.68,0,0,0,1.35,3.5,9.52,9.52,0,0,0,2.15,2.79,4,4,0,0,0,2.71,1.12h.16q5.25,0,7.65-9.72,3.66-11.94,8.75-17.12t10.36-5.18h.79c1.59,0,4,.88,7.17,2.63a38.85,38.85,0,0,1,9.48,7.65,51.05,51.05,0,0,1,8.28,12.18,35.47,35.47,0,0,1,3.58,16.09v1.59a37.47,37.47,0,0,1-3.26,15.21,43,43,0,0,1-9,13.14,45.45,45.45,0,0,1-13.38,9.23,38.87,38.87,0,0,1-16.4,3.51,38.75,38.75,0,0,1-16.81-3.66,43.77,43.77,0,0,1-13.21-9.48,44.2,44.2,0,0,1-8.6-13.06A36,36,0,0,1-216,368.88v-2.07q0-9.24,6.37-18.48l.64-.16c.21,0,.32.22.32.64a18.67,18.67,0,0,0-.16,2.39V353a28.49,28.49,0,0,0,2.07,10.51A31.93,31.93,0,0,0-200.9,373a29.61,29.61,0,0,0,9.24,6.93,27.33,27.33,0,0,0,12.1,2.62h.48A27.61,27.61,0,0,0-168,380.26a30.54,30.54,0,0,0,9.39-6.29,31,31,0,0,0,6.53-9.39,27.26,27.26,0,0,0,2.47-11.47q0-14.66-11.63-20.07h-1.43a5.4,5.4,0,0,0-3.5,1.51,17.94,17.94,0,0,0-3.35,4.07,23.34,23.34,0,0,0-2.54,5.73,23,23,0,0,0-1,6.69,38,38,0,0,1-1.83,7.72,37.2,37.2,0,0,1-3.35,7.17,18.91,18.91,0,0,1-4.69,5.33,9.46,9.46,0,0,1-5.9,2.07,8.78,8.78,0,0,1-5-1.67,15.74,15.74,0,0,1-4.46-4.85,29.46,29.46,0,0,1-3.27-7.89,41.13,41.13,0,0,1-1.27-10.75A51.54,51.54,0,0,1-196.44,324a27.16,27.16,0,0,0-4.62,1.12q-2.38.8-4.62,1.59c-1.49.53-2.92,1-4.3,1.36a14.32,14.32,0,0,1-3.66.55q-3.51,0-4.14-3v-.64c0-2,1.22-3.87,3.66-5.57a41.66,41.66,0,0,1,8.84-4.54,69.51,69.51,0,0,1,11-3.19A81.35,81.35,0,0,1-184.18,310.11Z" transform="translate(741.99 -244.02)"/><path class="cls-1" d="M-155.51,275.23a37.08,37.08,0,0,0-5.73-8.44,65,65,0,0,0-12.11-10.35,74.75,74.75,0,0,0-13.53-7.09,72.14,72.14,0,0,0-14.34-4.06A83.44,83.44,0,0,0-215.55,244h-3a60.57,60.57,0,0,0-18.23,2.62,47.3,47.3,0,0,0-14.41,7.17,35,35,0,0,0-9.48,10.43,24.12,24.12,0,0,0-3.43,12.26,25.05,25.05,0,0,0,2,9.48,44.33,44.33,0,0,0,5.26,9.32,53.07,53.07,0,0,0,7.57,8.28,48.65,48.65,0,0,0,8.92,6.37,7.84,7.84,0,0,0-4.7,1.43,15.09,15.09,0,0,0-3.43,3.43,15.31,15.31,0,0,0-2.15,4.22,13.07,13.07,0,0,0-.72,3.82v5.41a64.28,64.28,0,0,1,11.24,14.07A30.87,30.87,0,0,1-236,359a30,30,0,0,1-2.23,9.73,30.78,30.78,0,0,1-5.55,8.92,29.39,29.39,0,0,1-7.62,6.07v12.4a11.65,11.65,0,0,0,1.28,5.57,12.67,12.67,0,0,0,3.27,4,15.65,15.65,0,0,0,4.3,2.46A12.52,12.52,0,0,0-238,409h.48a12.48,12.48,0,0,0,5.81-1.27,13.33,13.33,0,0,0,4.15-3.27A14.3,14.3,0,0,0-225,400a13.88,13.88,0,0,0,.88-4.7V323.49a14.62,14.62,0,0,0-3.66-9.4q-10.37-8.44-10.36-17a13.19,13.19,0,0,1,2.23-7.49,19.75,19.75,0,0,1,5.82-5.65,27.74,27.74,0,0,1,8.2-3.5,37.22,37.22,0,0,1,9.4-1.2,47.42,47.42,0,0,1,14.09,2.15,43.71,43.71,0,0,1,13.14,6.77,51.68,51.68,0,0,0,10.19,6.13,23.14,23.14,0,0,0,9.24,2q6.53,0,9.87-3.42a12.32,12.32,0,0,0,3.35-9A34.12,34.12,0,0,0-155.51,275.23Z" transform="translate(741.99 -244.02)"/><path class="cls-3" d="M-365.35,346.92h-2.4l1,3.44-3.87,1.44h7.45a15.4,15.4,0,0,1-.49-3.35A4.6,4.6,0,0,1-365.35,346.92Z" transform="translate(741.99 -244.02)"/><path class="cls-3" d="M-369.91,339.32l.64,2.23,3.94,0a4.74,4.74,0,0,1,3.9-2.06l.09,0,.1-.17Z" transform="translate(741.99 -244.02)"/><path class="cls-3" d="M-337.15,334.64l-1.27-.06a12.92,12.92,0,0,0-4.82.73,17,17,0,0,0-4.41,2.26c-.11.08-.19.18-.3.26a4.73,4.73,0,0,1-3,3.35,9.33,9.33,0,0,0-1.36,4.38,10.68,10.68,0,0,0,2.1,6.15,52.46,52.46,0,0,0,5.4,7,79.51,79.51,0,0,0,6.71,6.54q3.51,3,6,5.07,2.76,2.37,5.61,4.41c1.75,1.26,3.53,2.46,5.33,3.63l1.41-29.4a7.59,7.59,0,0,0-1.55-4.38,23,23,0,0,0-4.16-4.66,23.81,23.81,0,0,0-2.58-1.94,26.13,26.13,0,0,0-2.75-1.56A16.35,16.35,0,0,0-337.15,334.64Z" transform="translate(741.99 -244.02)"/><path class="cls-1" d="M-332.16,370.28q-2.46-2-6-5.07a79.51,79.51,0,0,1-6.71-6.54,52.46,52.46,0,0,1-5.4-7,10.68,10.68,0,0,1-2.1-6.15,9.33,9.33,0,0,1,1.36-4.38,3.92,3.92,0,0,1-.69.2,9.14,9.14,0,0,0-1.13,3.89,10.76,10.76,0,0,0,2.09,6.16,54,54,0,0,0,5.41,6.95,75.06,75.06,0,0,0,6.7,6.54q3.53,3,6,5.07c1.84,1.58,3.7,3.05,5.61,4.42s3.83,2.68,5.79,3.94v0c-1.8-1.17-3.58-2.37-5.33-3.63S-330.32,371.86-332.16,370.28Z" transform="translate(741.99 -244.02)"/><path class="cls-1" d="M-275.91,332.77a19.86,19.86,0,0,0-6.39,3.6,20.22,20.22,0,0,0-4.83,5.9,18.08,18.08,0,0,0-2.13,8c0,.32,0,.48.13.49a7.48,7.48,0,0,0-.22,1.42l-2,42.32a14.55,14.55,0,0,1-1.29,5.2,14.79,14.79,0,0,1-3.25,4.7,17.42,17.42,0,0,1-4.86,3.36,12.69,12.69,0,0,1-6.12,1.14l-.79,0a14.36,14.36,0,0,1-4.67-.86,9.42,9.42,0,0,1-1.4-.74,9.8,9.8,0,0,0,1.87,1,14.56,14.56,0,0,0,4.66.86l.8,0a12.79,12.79,0,0,0,6.11-1.14,17.42,17.42,0,0,0,4.86-3.36,14.86,14.86,0,0,0,3.26-4.71,14.74,14.74,0,0,0,1.28-5.2l2-42.31a6.73,6.73,0,0,1,.23-1.42c-.11,0-.15-.17-.14-.49a17.92,17.92,0,0,1,2.14-7.95,20.08,20.08,0,0,1,4.82-5.91,20.46,20.46,0,0,1,6.39-3.6,18.81,18.81,0,0,1,7-1,18.71,18.71,0,0,1,9.29,2.91,18.83,18.83,0,0,0-9.76-3.2A18.77,18.77,0,0,0-275.91,332.77Z" transform="translate(741.99 -244.02)"/><path class="cls-1" d="M-347.65,337.57a17,17,0,0,1,4.41-2.26,12.92,12.92,0,0,1,4.82-.73l1.27.06a16.35,16.35,0,0,1,6.3,1.74,26.13,26.13,0,0,1,2.75,1.56,27.87,27.87,0,0,0-3.22-1.85,16.07,16.07,0,0,0-6.29-1.73l-1.27-.06a12.71,12.71,0,0,0-4.82.72,17.32,17.32,0,0,0-4.14,2.1,4.2,4.2,0,0,1-.11.71C-347.84,337.75-347.76,337.65-347.65,337.57Z" transform="translate(741.99 -244.02)"/><path class="cls-1" d="M-242.26,344.13a61,61,0,0,0-11.06-13.77,73.88,73.88,0,0,0-11-8.49,73.17,73.17,0,0,1,10.52,8.21,61,61,0,0,1,11.06,13.76,27.74,27.74,0,0,1,3.75,15,26.58,26.58,0,0,1-2,8.75,27.34,27.34,0,0,1-5,8,26.18,26.18,0,0,1-7.53,5.86,18.75,18.75,0,0,1-9.74,2l-1,0a19.39,19.39,0,0,1-7.94-2.13c.16.08.3.2.46.28a19.57,19.57,0,0,0,7.95,2.14l.95,0a18.73,18.73,0,0,0,9.74-2,26.36,26.36,0,0,0,7.54-5.86,27.89,27.89,0,0,0,5-8.05,26.81,26.81,0,0,0,2-8.76A27.69,27.69,0,0,0-242.26,344.13Z" transform="translate(741.99 -244.02)"/><path class="cls-1" d="M-363.19,351.79h.4a14.84,14.84,0,0,1-.43-3.17,3.66,3.66,0,0,1-.46-.18A15.4,15.4,0,0,0-363.19,351.79Z" transform="translate(741.99 -244.02)"/><path class="cls-1" d="M-321.36,344.54a7.59,7.59,0,0,1,1.55,4.38l-1.41,29.4c.16.1.3.22.46.32l1.41-29.43a7.6,7.6,0,0,0-1.54-4.38,23.42,23.42,0,0,0-4.17-4.67,24.73,24.73,0,0,0-3-2.22,23.81,23.81,0,0,1,2.58,1.94A23,23,0,0,1-321.36,344.54Z" transform="translate(741.99 -244.02)"/><path class="cls-1" d="M-351.23,327.35a62.34,62.34,0,0,1,14.51-10.07,69.14,69.14,0,0,1,17.19-5.95A73.66,73.66,0,0,1-301,309.9a70.58,70.58,0,0,1,16.84,3,82.1,82.1,0,0,1,16.41,6.93c1.19.66,2.35,1.36,3.5,2.08-1.3-.83-2.61-1.62-4-2.37a81.48,81.48,0,0,0-16.41-6.92,70.17,70.17,0,0,0-16.84-3A73.66,73.66,0,0,0-320,311a69.16,69.16,0,0,0-17.19,6,62,62,0,0,0-14.51,10.07,49.21,49.21,0,0,0-6.17,6.95h.66A50.54,50.54,0,0,1-351.23,327.35Z" transform="translate(741.99 -244.02)"/><path class="cls-1" d="M-282.92,369.37a20.69,20.69,0,0,1-1.42-8.76,21.21,21.21,0,0,1,1.88-7.64,21.24,21.24,0,0,1,4.79-6.79,24,24,0,0,1,7.32-4.75,21.29,21.29,0,0,1,9.48-1.54A33,33,0,0,1-255,341c.53,0,.87-.33,1-1.07v-.32a22,22,0,0,0-5.17-4.64,22.8,22.8,0,0,1,4.71,4.35v.32c-.15.74-.48,1.09-1,1.07a33.3,33.3,0,0,0-5.85-1.08,21.43,21.43,0,0,0-9.48,1.54,24.14,24.14,0,0,0-7.32,4.75,21.19,21.19,0,0,0-4.79,6.79,21.06,21.06,0,0,0-1.88,7.64,20.82,20.82,0,0,0,1.41,8.76,22.74,22.74,0,0,0,4.52,7.23,23.82,23.82,0,0,0,6.69,5h0a24,24,0,0,1-6.24-4.74A22.54,22.54,0,0,1-282.92,369.37Z" transform="translate(741.99 -244.02)"/><path class="cls-1" d="M-318.62,402.26c-1.26-1.5-2.9-3.35-4.92-5.58q-17.59-18.85-26.78-28.39T-359.95,358c-.18-.27-.31-.54-.48-.81h-.29c.11.18.19.35.31.52q.44.82,9.63,10.35T-324,396.39q3,3.35,4.92,5.58c1.25,1.5,2.39,2.75,3.4,3.75a11,11,0,0,0,1.92,1.49,10.73,10.73,0,0,1-1.45-1.2C-316.23,405-317.36,403.75-318.62,402.26Z" transform="translate(741.99 -244.02)"/><path class="cls-1" d="M-361.34,339.53a3.8,3.8,0,0,1,.59.06l.13-.23h-.62Z" transform="translate(741.99 -244.02)"/><path class="cls-1" d="M-263.27,383.52a18.75,18.75,0,0,0,9.74-2,26.18,26.18,0,0,0,7.53-5.86,27.34,27.34,0,0,0,5-8,26.58,26.58,0,0,0,2-8.75,27.74,27.74,0,0,0-3.75-15,61,61,0,0,0-11.06-13.76,73.17,73.17,0,0,0-10.52-8.21c-1.15-.72-2.31-1.42-3.5-2.08a82.1,82.1,0,0,0-16.41-6.93,70.58,70.58,0,0,0-16.84-3,73.66,73.66,0,0,0-18.48,1.43,69.14,69.14,0,0,0-17.19,5.95,62.34,62.34,0,0,0-14.51,10.07,50.54,50.54,0,0,0-6,6.67h.74a4.76,4.76,0,0,1,3.9-2.06,4.77,4.77,0,0,1,3.38,1.41,4.74,4.74,0,0,1,1.38,3.36c0,.13,0,.25,0,.38a17.32,17.32,0,0,1,4.14-2.1,12.71,12.71,0,0,1,4.82-.72l1.27.06a16.07,16.07,0,0,1,6.29,1.73,27.87,27.87,0,0,1,3.22,1.85,24.73,24.73,0,0,1,3,2.22,23.42,23.42,0,0,1,4.17,4.67,7.6,7.6,0,0,1,1.54,4.38l-1.41,29.43c-.16-.1-.3-.22-.46-.32v0c-2-1.26-3.89-2.58-5.79-3.94s-3.77-2.84-5.61-4.42q-2.46-2-6-5.07a75.06,75.06,0,0,1-6.7-6.54,54,54,0,0,1-5.41-6.95,10.76,10.76,0,0,1-2.09-6.16,9.14,9.14,0,0,1,1.13-3.89,4.33,4.33,0,0,1-.89.09,4.77,4.77,0,0,1-3.92-2.09l-4.14,0-.13.23a4.74,4.74,0,0,1,4.07,4.7,4.76,4.76,0,0,1-4.75,4.73,4.87,4.87,0,0,1-1.79-.4,14.84,14.84,0,0,0,.43,3.17h2.86a4.74,4.74,0,0,1,3.91-2.08,4.76,4.76,0,0,1,4.75,4.76,4.75,4.75,0,0,1-4.75,4.75,4.74,4.74,0,0,1-3.91-2.08h-.5c.17.27.3.54.48.81q.43.81,9.63,10.34t26.78,28.39c2,2.23,3.66,4.08,4.92,5.58s2.39,2.74,3.41,3.75a10.73,10.73,0,0,0,1.45,1.2,9.42,9.42,0,0,0,1.4.74,14.36,14.36,0,0,0,4.67.86l.79,0a12.69,12.69,0,0,0,6.12-1.14,17.42,17.42,0,0,0,4.86-3.36,14.79,14.79,0,0,0,3.25-4.7,14.55,14.55,0,0,0,1.29-5.2l2-42.32a7.48,7.48,0,0,1,.22-1.42c-.1,0-.15-.17-.13-.49a18.08,18.08,0,0,1,2.13-8,20.22,20.22,0,0,1,4.83-5.9,19.86,19.86,0,0,1,6.39-3.6,18.77,18.77,0,0,1,7-1,18.83,18.83,0,0,1,9.76,3.2,22,22,0,0,1,5.17,4.64v.32c-.14.74-.48,1.09-1,1.07a33,33,0,0,0-5.85-1.08,21.29,21.29,0,0,0-9.48,1.54,24,24,0,0,0-7.32,4.75,21.24,21.24,0,0,0-4.79,6.79,21.21,21.21,0,0,0-1.88,7.64,20.69,20.69,0,0,0,1.42,8.76,22.54,22.54,0,0,0,4.51,7.23,24,24,0,0,0,6.24,4.74,19.39,19.39,0,0,0,7.94,2.13Z" transform="translate(741.99 -244.02)"/><path class="cls-2" d="M-465.38,357.14a4.75,4.75,0,0,1-3.91,2.08,4.76,4.76,0,0,1-4.75-4.76,4.75,4.75,0,0,1,4.75-4.75,4.77,4.77,0,0,1,3.91,2.07h1.7v-.59q0-5.26.16-11v-3.82q0-4.62-6.21-11.79c-1.92-1.8-3.93-3.53-6.06-5.17-.51-.4-1.06-.79-1.64-1.17a41,41,0,0,0-6-3.09,70.55,70.55,0,0,0-12.42-3.66,140.55,140.55,0,0,0-19-2.39,95.34,95.34,0,0,0-13,1,101.2,101.2,0,0,0-14,2.94A43.65,43.65,0,0,0-553,317.87q-4.54,2.86-4.54,6.53V325a3.54,3.54,0,0,0,1.24,2.14,4.81,4.81,0,0,0,2.44.6A9.45,9.45,0,0,0-549,326.5a60.76,60.76,0,0,1,22.46-4.14,49.37,49.37,0,0,1,6.53.56c2.65.37,5.47.87,8.44,1.51a92,92,0,0,1,8.92,2.39,65.17,65.17,0,0,1,8.12,3.19,26.55,26.55,0,0,1,3.42,1.94,19.54,19.54,0,0,1,2.94,2.24,6.34,6.34,0,0,1,2.23,4.54V350.2l-.16-.16c-.1-.16-.21-.27-.31-.43v.3l-.16-.16a9.79,9.79,0,0,0-3.06-3.4,8.09,8.09,0,0,0-4.12-1.09q-5.25,0-8,5.58l-.31-.54c-.05.09-.11.16-.16.25-.42-.74-1-1.7-1.67-2.87a13.84,13.84,0,0,0-2.86-3.34,14.5,14.5,0,0,0-1.8-1.29,17.93,17.93,0,0,0-2.28-1.13,17.72,17.72,0,0,0-6.69-1.12h-1q-13.23,0-23.73,10a34.08,34.08,0,0,0-4.86,6.21,24.61,24.61,0,0,0-2.39,5.25,18.69,18.69,0,0,0-.8,4.62c0,1.49-.08,3-.08,4.46a19.58,19.58,0,0,0,2.39,10.19,21.18,21.18,0,0,0,5.65,6.37,20.59,20.59,0,0,0,6.23,3.06,21.82,21.82,0,0,0,5.66,1h.79a13.63,13.63,0,0,0,6.21-1.44,17.33,17.33,0,0,0,5-3.74,18.75,18.75,0,0,0,3.42-5.17,14.42,14.42,0,0,0,1.28-5.9,15.72,15.72,0,0,0-1.51-6.92,16.68,16.68,0,0,0-3.83-5.18,16.74,16.74,0,0,0-2.22-1.67,16.56,16.56,0,0,0-2.41-1.23,14.78,14.78,0,0,0-5.49-1.11h-.8q-7.8,0-13.38,7.48a10.21,10.21,0,0,1-1.75,2.71h-.32a.89.89,0,0,1-.63-.35c-.65-.16-1.13-1.17-1.42-3.12a9.42,9.42,0,0,1,1.67-5.26,18.24,18.24,0,0,1,4.14-4.46,22.62,22.62,0,0,1,5.41-3.1,14.68,14.68,0,0,1,5.5-1.2,19.11,19.11,0,0,1,5.41.8h.32a18.62,18.62,0,0,1,4,1.73,18.86,18.86,0,0,1,3.37,2.22,28,28,0,0,1,5.26,5.65,26.42,26.42,0,0,1,3.26,6.29,17.36,17.36,0,0,1,1.12,5.58v.16a25.78,25.78,0,0,1-.48,4.77,5.87,5.87,0,0,0,1.91,4.78c.27.22.53.41.78.58a4.57,4.57,0,0,0,2.26.73h.48a6.68,6.68,0,0,0,3.9-1.44,9.43,9.43,0,0,0,3.11-5.09,16,16,0,0,1,9.55-8.28v.48c.16-.05.3-.14.47-.2v24.05q0,7.33,3.58,10.35a14.69,14.69,0,0,0,1.58,1.15,11.11,11.11,0,0,0,5.68,1.59,11.48,11.48,0,0,0,5-1,10.84,10.84,0,0,0,3.58-2.71,11.37,11.37,0,0,0,2.15-3.74,12.53,12.53,0,0,0,.72-4.14V380h-4.44a4.71,4.71,0,0,1-3.9,2.07,4.76,4.76,0,0,1-4.76-4.75,4.76,4.76,0,0,1,4.76-4.75,4.71,4.71,0,0,1,3.9,2.07h4.44v-1.84a2.9,2.9,0,0,1-.41.06,4.77,4.77,0,0,1-4.76-4.76,4.76,4.76,0,0,1,4.76-4.75c.14,0,.27,0,.41.05v-6.28Z" transform="translate(741.99 -244.02)"/><path class="cls-4" d="M-388.57,356.6a24,24,0,0,0-24-24,24,24,0,0,0-24,24,24,24,0,0,0,24,24A24,24,0,0,0-388.57,356.6Zm-6.54,11.1a36.25,36.25,0,0,0-3.79-1.15,34.89,34.89,0,0,0,1.39-8.72h5.6A20.5,20.5,0,0,1-395.11,367.7Zm-.24-22.59a20.49,20.49,0,0,1,3.44,10.27h-5.6A34.1,34.1,0,0,0-399,346.2,37.79,37.79,0,0,0-395.35,345.11Zm-1.6-2.08c-.91.3-1.91.57-2.94.81a23.05,23.05,0,0,0-3.31-5.68A20.65,20.65,0,0,1-396.95,343Zm-9.13,12.35c0-2.36-.17-5.14-.47-7.95,1.81-.17,3.52-.41,5.14-.71a32.07,32.07,0,0,1,1.45,8.66Zm6.12,2.45a32.49,32.49,0,0,1-1.31,8.2c-1.65-.32-3.39-.57-5.23-.74.26-2.64.39-5.24.42-7.46Zm-2.33-13.47c-1.43.26-2.95.47-4.56.62a33.7,33.7,0,0,0-2.16-8.64C-406.27,337.69-403.91,340.55-402.29,344.36Zm-14.3,11c0-2.9.18-5.51.42-7.78,1.18.06,2.37.1,3.6.1s2.43,0,3.6-.1c.24,2.27.4,4.88.44,7.78Zm8.06,2.45c0,2.7-.18,5.13-.39,7.29-1.19-.07-2.4-.11-3.65-.11s-2.45,0-3.64.11c-.21-2.16-.35-4.59-.38-7.29Zm-4.63-21.91c.19,0,.39,0,.59,0l.6,0c.84,1.07,2,4.17,2.7,9.23-1.07.06-2.17.1-3.3.1s-2.22,0-3.29-.1C-415.13,340.09-414,337-413.16,335.92Zm-3,.42a33.7,33.7,0,0,0-2.16,8.64c-1.61-.15-3.13-.36-4.57-.62C-421.22,340.55-418.86,337.69-416.12,336.34Zm-2.93,19h-6.12a32.47,32.47,0,0,1,1.44-8.66c1.63.3,3.34.54,5.15.71C-418.88,350.24-419,353-419,355.38Zm.42,9.91c-1.84.17-3.58.42-5.23.74a32.49,32.49,0,0,1-1.31-8.2H-419C-419,360.05-418.89,362.65-418.63,365.29Zm-3.31-27.14a23.42,23.42,0,0,0-3.3,5.69c-1-.24-2-.51-2.94-.81A21.05,21.05,0,0,1-421.94,338.15Zm-7.85,7c1.14.4,2.38.77,3.7,1.09a34.5,34.5,0,0,0-1.53,9.18h-5.6A20.48,20.48,0,0,1-429.79,345.11ZM-430,367.7a20.49,20.49,0,0,1-3.19-9.87h5.6a34.43,34.43,0,0,0,1.39,8.72A37.21,37.21,0,0,0-430,367.7Zm1.51,2.1c1-.32,2-.62,3.1-.89a23.59,23.59,0,0,0,3.48,6.14A20.74,20.74,0,0,1-428.52,369.8Zm5.47-1.4c1.47-.28,3-.5,4.7-.66a34.46,34.46,0,0,0,2.23,9.13C-419,375.46-421.42,372.43-423,368.4Zm11.08,8.89-.6,0c-.2,0-.4,0-.59,0-.87-1.11-2-4.37-2.77-9.73,1.09-.05,2.21-.09,3.36-.09s2.28,0,3.37.09C-409.93,372.92-411.1,376.18-412,377.29Zm3-.42a34.85,34.85,0,0,0,2.23-9.13c1.66.16,3.23.38,4.69.66C-403.72,372.43-406.16,375.46-409,376.87Zm5.81-1.82a23.6,23.6,0,0,0,3.49-6.14c1.1.27,2.14.57,3.1.89A20.8,20.8,0,0,1-403.2,375.05Z" transform="translate(741.99 -244.02)"/><path class="cls-1" d="M-374.59,358h-7a31,31,0,0,1-29.59,29.58v7.72a36.14,36.14,0,0,0,4.15-.37l1.91,5.15,9.1-2.59-1.1-5.47a37.53,37.53,0,0,0,7.89-4.75l4.33,3.69,6.69-6.69-3.8-4.45a38.15,38.15,0,0,0,4.49-7.84l5.84,1.17,2.59-9.1-5.75-2.14C-374.69,360.6-374.62,359.29-374.59,358Z" transform="translate(741.99 -244.02)"/><path class="cls-2" d="M-443.53,358H-451a39.94,39.94,0,0,0,.28,4.08l-5.33,2,.94,3.33h-6.28a2.83,2.83,0,0,0-2.72-2.08,2.84,2.84,0,0,0-2.84,2.83,2.84,2.84,0,0,0,2.84,2.84,2.83,2.83,0,0,0,2.72-2.08h6.71l1.21,4.26,5.44-1.09a38.62,38.62,0,0,0,2.31,4.53h-23.61a2.81,2.81,0,0,0-2.71-2.07,2.83,2.83,0,0,0-2.84,2.83,2.83,2.83,0,0,0,2.84,2.83,2.81,2.81,0,0,0,2.71-2.07h24.56c.44.67.91,1.33,1.4,2l-3.56,4.18,6.69,6.69,4.12-3.52A37.75,37.75,0,0,0-428,392.2l-1.06,5.28,9.1,2.59,1.89-5.09a36.24,36.24,0,0,0,4.16.33v-7.74A31,31,0,0,1-443.53,358Z" transform="translate(741.99 -244.02)"/><path class="cls-1" d="M-469.29,357.3a2.83,2.83,0,0,0,2.72-2.08h23a31,31,0,0,1,29.58-29.58v-6.7a34.51,34.51,0,0,0-3.79.28l-2.26-6.08-9.1,2.59,1.25,6.24a37.49,37.49,0,0,0-7.59,4.37l-4.78-4.08-6.69,6.69,4,4.65a38.15,38.15,0,0,0-4.63,7.65l-5.88-1.18-2.58,9.1,5.47,2c-.13.83-.21,1.66-.28,2.49h-15.73a2.83,2.83,0,0,0-2.72-2.07,2.83,2.83,0,0,0-2.83,2.83A2.83,2.83,0,0,0-469.29,357.3Z" transform="translate(741.99 -244.02)"/><path class="cls-2" d="M-352.54,333.89a2.83,2.83,0,0,0-2.73,2.06l-25.77-.12c-.44-.66-.9-1.31-1.39-1.95l4.21-4.93-6.69-6.69-5,4.25a38.53,38.53,0,0,0-7.43-4.36l1.29-6.42-9.1-2.59-2.29,6.13c-1.25-.17-2.51-.26-3.77-.32v6.69a31,31,0,0,1,29.59,29.58h22.86A2.82,2.82,0,0,0-356,357.3a2.83,2.83,0,0,0,2.83-2.83,2.84,2.84,0,0,0-2.83-2.84,2.82,2.82,0,0,0-2.72,2.08h-16c-.06-.79-.14-1.57-.26-2.35l5.9-2.19-1.19-4.19,6.14,0a2.81,2.81,0,0,0,2.7,2.09,2.84,2.84,0,0,0,2.85-2.82,2.83,2.83,0,0,0-2.82-2.85,2.84,2.84,0,0,0-2.73,2.06l-6.57,0-1-3.39-6.28,1.26a36.92,36.92,0,0,0-2.1-4l24.79.12a2.82,2.82,0,0,0,2.71,2.08,2.83,2.83,0,0,0,2.85-2.81A2.84,2.84,0,0,0-352.54,333.89Z" transform="translate(741.99 -244.02)"/></svg>